<?xml version="1.0" encoding="utf-8"?>
<!-- Generator: Adobe Illustrator 18.1.1, SVG Export Plug-In . SVG Version: 6.00 Build 0)  -->
<svg version="1.1" id="Layer_1" xmlns="http://www.w3.org/2000/svg" xmlns:xlink="http://www.w3.org/1999/xlink" x="0px" y="0px"
	 viewBox="0 332.5 612 123.2" enable-background="new 0 332.5 612 123.2" xml:space="preserve">
<g>
	<g>
		<path fill="#0D9847" d="M230,396.7c4.7,0,8.5-1.8,11.5-5.5l6.1,6.2c-4.8,5.5-10.6,8.1-17,8.1c-6.6,0-11.9-2.1-16.1-6.2
			c-4.2-4.2-6.4-9.4-6.4-15.6c0-6.4,2.1-11.5,6.5-15.8c4.3-4.2,9.7-6.4,15.9-6.2c7,0,12.8,2.7,17.5,8l-6,6.7
			c-3-3.7-6.7-5.6-11.2-5.6c-3.5,0-6.6,1.1-9.2,3.4c-2.5,2.3-3.8,5.5-3.8,9.4s1.1,7.1,3.5,9.5C223.8,395.4,226.7,396.7,230,396.7z"
			/>
		<path fill="#0D9847" d="M255,405.1l0.2-42.5h9.5l-0.2,34h18.2v8.5H255L255,405.1z"/>
		<path fill="#0D9847" d="M289.7,362.8h9.5l-0.2,42.5h-9.5L289.7,362.8z"/>
		<path fill="#0D9847" d="M340.3,362.9v8.5h-21.2v8.8h19.1v8.1h-19.1v8.8h21.8v8.3h-31.3l0.2-42.5L340.3,362.9z"/>
		<path fill="#0D9847" d="M379.1,363h9.5l-0.2,42.5H379l-20.2-26.7l-0.2,26.7h-9.5l0.2-42.5h8.9l20.9,27.4L379.1,363L379.1,363z"/>
		<path fill="#0D9847" d="M417,371.3l-0.2,34.3h-9.5l0.2-34.3h-12.1V363l33.5,0.2v8.3L417,371.3z"/>
		<path fill="#0D9847" d="M456.1,399.2c2.5,0,4.6-0.4,6.4-1.3c1.8-0.7,3.7-2.1,5.6-3.9l4.6,4.7c-4.4,5-10.1,7.5-16.4,7.4
			c-6.5,0-11.7-2.1-16-6.2c-4.2-4.2-6.4-9.4-6.4-15.8c0-6.4,2.1-11.5,6.5-15.8c4.3-4.2,9.8-6.4,16.4-6.2c6.6,0,12.1,2.5,16.5,7.4
			l-4.6,5c-2-1.9-3.9-3.3-5.7-4.1c-1.8-0.7-3.9-1.1-6.4-1.1c-4.3,0-7.9,1.4-10.8,4.2c-2.9,2.8-4.4,6.4-4.4,10.6s1.4,7.9,4.3,10.8
			C448.7,397.7,452.1,399.2,456.1,399.2z"/>
		<path fill="#0D9847" d="M487.4,396l-4.3,9.7h-7.6l18.8-42.5h7.6l18.6,42.5h-7.6l-4.2-9.7L487.4,396z M505.8,389.5l-7.6-17.5
			l-7.8,17.5H505.8z"/>
		<path fill="#0D9847" d="M539.5,369c-2,0-3.8,0.4-5.1,1.3c-1.4,0.9-2,2.1-2,3.8c0,1.8,0.7,3,2,3.9c1.4,0.9,4.2,1.9,8.5,2.9
			c4.3,1,7.6,2.5,9.8,4.4c2.1,1.9,3.3,4.7,3.3,8.3c0,3.7-1.4,6.7-4.2,9c-2.8,2.3-6.5,3.4-11,3.4c-6.6,0-12.6-2.3-17.7-6.9l4.6-5.5
			c4.3,3.7,8.8,5.6,13.3,5.6c2.3,0,4.2-0.5,5.5-1.6c1.4-1,2-2.3,2-3.9c0-1.6-0.7-2.9-1.9-3.8c-1.3-0.9-3.4-1.8-6.6-2.5
			c-3.2-0.7-5.5-1.4-7.1-2c-1.6-0.7-3-1.4-4.3-2.5c-2.5-1.9-3.8-4.8-3.8-8.8s1.4-7,4.3-9c2.9-2.1,6.4-3.2,10.6-3.2
			c2.7,0,5.5,0.5,8.1,1.4c2.7,0.9,5,2.1,6.9,3.8l-3.8,5.5c-1.3-1.1-2.9-2-5.1-2.8C543.7,369.3,541.6,369,539.5,369z"/>
		<path fill="#0D9847" d="M580.9,370.1l-0.2,35.9h-7.1l0.2-35.9h-12.8v-6.6l32.9,0.2v6.6L580.9,370.1z"/>
	</g>
	
		<text transform="matrix(1 2.899976e-03 -2.899976e-03 1 601.0032 364.0999)" fill="#0D9847" font-family="'Montserrat-Regular'" font-size="13.3072">®</text>
</g>
<g>
	<g>
		<polygon fill="#1E60AC" points="116.2,389.7 79.8,332.5 43.2,389.7 		"/>
		<polygon fill="#1E60AC" points="142.3,431 16.8,431 1.1,455.4 157.7,455.4 		"/>
	</g>
	<g>
		<path fill="#231F20" d="M3.4,397.6c0-0.5-0.2-0.9-1.4-0.9V396h12.2v0.7c-1.1,0-1.4,0.4-1.4,0.7c0,0.7,8.8,10.1,12.4,14.2v-14
			c0-0.7-0.4-0.9-1-0.9V396h9.2v0.7c-1.3,0.2-1.4,0.5-1.4,0.9v24.4c0,0.5,0.2,0.9,1.4,0.9v0.7h-9.7v-0.7c0.9,0,1.1-0.2,1.1-0.7
			c0-0.7-1.3-1.4-14.7-16.8v16.4c0,0.5,0.2,0.9,1.4,0.9v0.7H1.9v-0.7c1.3-0.2,1.4-0.5,1.4-0.9L3.4,397.6L3.4,397.6z"/>
		<path fill="#231F20" d="M54.2,401l5,12.4h-9.6L54.2,401z M60.5,417.6c0.2,0.7,1.8,4.4,1.8,4.7s-0.2,0.7-1,0.7v0.7h10.1v-0.7
			c-0.7,0-0.9-0.2-1.4-1.6c-3.2-8-9.4-23.6-9.4-24.1c0-0.5,0.4-0.7,0.9-0.7V396H48.2v0.7c0.5,0,1,0.2,1,0.5c0,0.2-8.7,23.4-9,24.5
			c-0.2,0.9-0.7,1-1.3,1.1v0.7h9v-0.7c-0.7,0-0.9-0.2-0.9-0.5s0.2-1,1.6-4.8L60.5,417.6L60.5,417.6z"/>
		<path fill="#231F20" d="M77.2,423.6v-0.7c1.3-0.2,1.4-0.5,1.4-0.9v-24.3c0-0.5-0.2-0.9-1.4-0.9v-0.7h10.4v0.7
			c-1.3,0.2-1.4,0.5-1.4,0.9v24.4c0,0.5,0.2,0.9,1.4,0.9v0.7C87.7,423.6,77.2,423.6,77.2,423.6z"/>
		<path fill="#231F20" d="M123.1,403.7h-0.7c-0.2-1-0.4-1.3-0.9-1.3h-16.8v4.7h11.4c0.5,0,0.7-0.2,0.9-1.1h0.7v8.8H117
			c-0.2-1.1-0.4-1.4-0.9-1.4h-11.3v8.8c0,0.5,0.2,0.9,1.4,0.9v0.7H95.6v-0.7c1.3-0.2,1.4-0.5,1.4-0.9v-24.3c0-0.5-0.2-0.9-1.4-0.9
			v-0.7h26c0.5,0,0.7-0.2,0.9-1.6h0.7V403.7L123.1,403.7z"/>
		<path fill="#231F20" d="M138.4,401l5,12.4h-9.4L138.4,401z M144.6,417.6c0.2,0.7,1.8,4.4,1.8,4.7s-0.2,0.7-1,0.7v0.7h10.1v-0.7
			c-0.7,0-0.9-0.2-1.4-1.6c-3.2-8-9.4-23.6-9.4-24.1c0-0.5,0.4-0.7,0.9-0.7V396h-13.3v0.7c0.5,0,1,0.2,1,0.5c0,0.2-8.7,23.4-9,24.5
			c-0.2,0.9-0.7,1-1.3,1.1v0.7h9v-0.7c-0.7,0-0.9-0.2-0.9-0.5s0.2-1,1.6-4.8L144.6,417.6L144.6,417.6z"/>
	</g>
	<g>
		<path fill="#231F20" d="M164.8,450.2c1.6,0,2.8,1.1,2.8,2.8c0,1.6-1.3,2.8-2.8,2.8c-1.6,0-2.8-1.1-2.8-2.8
			C162,451.5,163.3,450.2,164.8,450.2z M164.8,455.4c1.3,0,2.3-1,2.3-2.5c0-1.4-1-2.5-2.3-2.5s-2.3,1-2.3,2.5
			C162.5,454.4,163.6,455.4,164.8,455.4z M163.8,451.3h1.3c0.7,0,1.1,0.2,1.1,0.9c0,0.7-0.4,0.9-0.9,0.9l0.9,1.4h-0.5l-0.9-1.4h-0.5
			v1.4h-0.5L163.8,451.3L163.8,451.3z M164.3,452.9h0.5c0.5,0,0.9,0,0.9-0.5c0-0.4-0.4-0.5-0.7-0.5h-0.7L164.3,452.9L164.3,452.9z"
			/>
	</g>
</g>
<g>
	<g>
		<g>
			<path fill="#182447" stroke="#182447" stroke-width="0.5" stroke-miterlimit="10" d="M536.1,418.7c0.7,0,1.3,0.7,1.3,1.3
				c0,0.7-0.7,1.4-1.3,1.4c-0.7,0-1.3-0.7-1.3-1.4C534.7,419.3,535.3,418.7,536.1,418.7L536.1,418.7z M536.1,418.9
				c-0.7,0-1,0.5-1,1.1c0,0.7,0.5,1.1,1,1.1c0.7,0,1-0.5,1-1.1C537.1,419.4,536.6,418.9,536.1,418.9L536.1,418.9z M535.8,420.8h-0.2
				v-1.6c0.2,0,0.2,0,0.4,0c0.2,0,0.4,0,0.5,0.2c0.2,0.2,0.2,0.2,0.2,0.2c0,0.2-0.2,0.2-0.2,0.4l0,0c0.2,0,0.2,0.2,0.2,0.4
				c0,0.2,0.2,0.2,0.2,0.4h-0.4c0,0-0.2-0.2-0.2-0.4c0-0.2-0.2-0.2-0.4-0.2h-0.2L535.8,420.8L535.8,420.8z M535.8,419.9h0.2
				c0.2,0,0.4-0.2,0.4-0.2c0-0.2-0.2-0.2-0.4-0.2c-0.2,0-0.2,0-0.2,0V419.9z"/>
		</g>
		<g>
			<path fill="#182447" stroke="#182447" stroke-width="0.5" stroke-miterlimit="10" d="M410.4,429.5h-0.2c0,0-0.2,0-0.2-0.2
				c0.2-0.2,0.2-0.4,0.2-0.7c0.2-0.2,0.2-0.5,0.2-0.7s0.2-0.5,0.4-0.7c0.7-0.4,1.3-0.7,2.1-0.9c0.7-0.2,1.6-0.5,2.3-0.7
				c1.4-0.2,2.9-0.4,4.4-0.4c1.9,0,3.4,0.2,4.4,0.7c1,0.4,1.6,1.1,1.6,2.3c0,0.5-0.2,1-0.5,1.6c-0.4,0.5-0.9,1.1-1.4,1.6
				c-0.7,0.5-1.4,0.9-2.3,1.3c-0.9,0.4-1.9,0.7-2.9,0.7c-0.2,0-0.2,0.2-0.2,0.2c0.5,0.9,1.1,1.9,1.9,3.2c0.7,1.3,1.8,2.5,2.7,4.1
				c0.5,0.7,1.1,1.4,1.8,2c0.7,0.7,1.4,1.3,2.1,1.8s1.6,0.9,2.5,1.3c0.9,0.2,1.8,0.5,2.7,0.5c1.4,0,2.9-0.4,4.3-1.1
				c0.2-0.2,0.2-0.2,0.2,0.2c0,0.2,0,0.2-0.2,0.2c-0.7,0.4-1.6,0.7-2.5,1s-1.8,0.4-2.7,0.4c-1.4,0-2.5-0.2-3.5-0.4
				c-1-0.2-2-0.7-2.8-1.3c-0.9-0.7-1.6-1.3-2.5-2.3c-0.7-0.9-1.6-2-2.5-3.3c-0.2-0.4-0.5-0.9-0.9-1.4c-0.4-0.5-0.7-1.1-1-1.8
				c-0.3-0.7-0.7-1.1-1-1.8c-0.4-0.5-0.7-1-0.7-1.4c0-0.2,0-0.2,0.2-0.2c1.1,0,2-0.2,2.9-0.2c0.9-0.2,1.6-0.5,2.3-0.9
				c0.7-0.4,1.1-0.9,1.6-1.6s0.5-1.3,0.5-2.1c0-0.2,0-0.7-0.2-0.9c-0.2-0.4-0.2-0.7-0.7-0.9c-0.2-0.2-0.7-0.5-1.1-0.7
				c-0.5-0.2-1-0.2-1.8-0.2c-0.2,0-0.5,0-0.7,0.2c-0.2,0-0.4,0.2-0.7,0.4c-0.2,0.2-0.7,0.9-1.1,1.6c-0.5,0.7-1,1.6-1.6,2.5
				c-0.7,1-1.1,2-1.8,3c-0.7,1.1-1.3,2.1-1.8,3.2c-0.5,1-1,1.9-1.6,2.8c-0.4,0.9-0.7,1.6-1,1.9l-0.2,0.2c-0.2,0-0.2,0-0.4,0
				c-0.2,0-0.2,0-0.4,0c-0.2,0-0.2,0-0.4,0c-0.2,0-0.4,0-0.5,0.2c-0.2,0.2-0.5,0.4-0.9,0.7H407c0,0-0.2,0,0-0.2
				c2.1-3.2,4.1-6.1,5.6-8.7c1.6-2.5,2.8-4.8,3.9-7c0.2-0.2,0.2-0.2,0-0.4c0,0-0.2-0.2-0.2-0.2c-0.7,0-1.4,0.2-2.1,0.4
				c-0.7,0.2-1.4,0.5-2,0.9c-0.4,0.2-0.7,0.5-1.1,1C411.1,428.7,410.6,429.1,410.4,429.5z"/>
			<path fill="#182447" stroke="#182447" stroke-width="0.5" stroke-miterlimit="10" d="M434.5,437.2c-0.4,0.5-0.9,1-1.4,1.6
				c-0.5,0.5-1.1,1-1.8,1.6c-0.7,0.4-1.4,0.7-2,1.1c-0.7,0.2-1.4,0.4-2.1,0.4c-1.1,0-1.6-0.5-1.6-1.6c0-0.7,0.2-1.4,0.5-2.1
				c0.4-0.7,0.7-1.6,1.4-2.1c0.5-0.7,1.1-1.3,1.8-1.6c0.7-0.4,1.3-0.7,1.9-0.7c0.4,0,0.5,0,0.7,0.2c0.2,0.2,0.2,0.2,0.2,0.5
				s-0.2,0.7-0.2,0.9c-0.2,0.4-0.5,0.7-0.7,1c-0.4,0.2-0.7,0.5-1.4,0.7c-0.5,0.2-1.3,0.2-2,0.2c-0.2,0.2-0.2,0.5-0.4,1
				c-0.2,0.5-0.2,0.9-0.2,1.4c0,1,0.5,1.6,1.3,1.6c0.5,0,1.1-0.2,1.8-0.4s1.1-0.7,1.8-1c0.7-0.4,1-0.7,1.6-1.3
				C433.8,438,434.2,437.6,434.5,437.2h0.2C434.5,437.1,434.5,437.1,434.5,437.2z M430.6,434.3c0-0.2-0.2-0.5-0.5-0.5
				c-0.2,0-0.5,0.2-0.7,0.2c-0.2,0.2-0.5,0.4-0.7,0.7c-0.2,0.2-0.5,0.7-0.7,0.9c-0.2,0.4-0.4,0.7-0.5,1c0,0,0.2,0,0.2,0
				c0.1,0,0.2,0,0.2,0c0.7,0,1.3-0.2,1.8-0.7C430.4,435.5,430.6,435,430.6,434.3z"/>
			<path fill="#182447" stroke="#182447" stroke-width="0.5" stroke-miterlimit="10" d="M445.3,436.4c-0.5,0.7-1.1,1.4-1.8,2
				c-0.7,0.7-1.3,1.3-2,1.9c-0.7,0.5-1.4,1-2,1.4s-1.3,0.5-1.8,0.5c-0.5,0-0.7-0.2-1-0.4c-0.2-0.2-0.2-0.5-0.2-0.9s0.2-0.7,0.2-1.4
				c0.2-0.5,0.5-1.1,0.9-1.8c-0.2,0.4-0.7,0.9-1.1,1.3c-0.4,0.5-0.9,0.9-1.3,1.3c-0.4,0.4-0.9,0.7-1.3,0.9s-0.7,0.4-1.1,0.4
				c-0.5,0-0.7-0.2-0.7-0.7s0.2-1.3,0.7-2c0.4-0.9,1-1.6,1.8-2.5c0.7-0.7,1.6-1.4,2.5-2c0.9-0.5,1.9-0.9,2.9-0.9
				c0.2-0.2,0.2-0.4,0.4-0.5c0.2-0.2,0.2-0.2,0.2-0.2l1-0.2h0.2c-0.2,0.2-0.2,0.2-0.4,0.5c-0.2,0.2-0.2,0.4-0.4,0.5
				c0.2,0,0.2,0,0.5,0c0.2,0,0.4,0,0.5,0.2c0.2,0,0.2,0.2,0.2,0.2s0,0.2-0.2,0.2c-0.2,0-0.4-0.2-0.7-0.2c-0.2,0-0.5,0-0.7,0
				c-1.1,1.9-1.9,3.5-2.5,4.6c-0.5,1.1-0.7,2-0.7,2.5c0,0.2,0,0.4,0.2,0.5c0.2,0.2,0.4,0.2,0.7,0.2c0.4,0,0.9-0.2,1.4-0.4
				c0.5-0.2,1.1-0.7,1.6-1.1c0.7-0.5,1.3-1,1.9-1.6c0.7-0.7,1.3-1.4,1.8-2c0-0.2,0.2-0.2,0.2,0C445.3,436.3,445.3,436.4,445.3,436.4
				z M439.8,433.8c-0.7,0-1.6,0.2-2.3,0.9c-0.7,0.7-1.4,1.3-2,2s-1,1.6-1.4,2.3s-0.5,1.4-0.5,1.6c0,0.2,0.2,0.2,0.2,0.2
				c0.1,0,0.4-0.2,0.7-0.2c0.2-0.2,0.7-0.5,1-0.7c0.4-0.4,0.7-0.7,1.1-1.1s0.7-0.9,1.1-1.4c0.4-0.7,0.7-1.1,1.1-1.9
				C439.1,434.9,439.5,434.3,439.8,433.8L439.8,433.8z"/>
			<path fill="#182447" stroke="#182447" stroke-width="0.5" stroke-miterlimit="10" d="M460.6,417.9c0,0.4-0.2,0.9-0.4,1.6
				c-0.2,0.7-0.7,1.4-1.1,2.3c-0.5,0.9-1.1,1.8-1.8,2.8c-0.7,1-1.6,1.9-2.5,2.9c-0.9,1-1.9,1.9-2.9,2.8c-1.1,0.9-2.3,1.6-3.4,2.3
				c-0.2,0.4-0.5,0.9-0.9,1.6s-0.7,1.4-1.1,2c-0.4,0.7-0.7,1.4-1,2.1c-0.2,0.7-0.4,1.3-0.4,1.8c0,0.7,0.4,1.1,1,1.1
				c0.7,0,1.3-0.2,1.9-0.5c0.7-0.4,1.3-0.7,1.9-1.3c0.7-0.5,1.1-1,1.6-1.6c0.5-0.5,1-1,1.3-1.4c0.2-0.2,0.2-0.2,0.2-0.2
				c0,0.2,0,0.2-0.2,0.2c-0.4,0.5-0.9,1.1-1.6,1.6c-0.7,0.7-1.3,1.1-1.9,1.6c-0.7,0.5-1.4,0.9-2,1.3c-0.7,0.4-1.4,0.5-2.1,0.5
				c-0.7,0-1-0.2-1.4-0.5c-0.2-0.2-0.4-0.7-0.4-1.1c0-0.4,0.2-1,0.5-1.9c0.4-0.7,0.7-1.6,1.3-2.5c0.5-0.9,1-1.8,1.6-2.5
				c0.5-0.7,0.9-1.4,1.1-1.8c0.4-0.7,0.9-1.4,1.3-2.1c0.5-0.7,0.9-1.6,1.3-2.1c0.4-0.7,0.9-1.4,1.3-2c0.4-0.7,0.7-1.3,1.1-1.8
				c0.4-0.7,0.9-1.3,1.3-1.8s1-1.1,1.6-1.6c0.9-0.7,1.8-1.4,2.5-1.8s1.3-0.7,1.6-0.7c0.2,0,0.4,0,0.5,0.2
				C460.5,417.5,460.6,417.6,460.6,417.9z M458.9,418.9c0-0.4-0.2-0.7-0.5-0.7c-0.2,0-0.2,0-0.4,0.2s-0.4,0.2-0.5,0.5
				c-0.2,0.2-0.5,0.5-0.9,1c-0.4,0.4-0.7,0.9-1.3,1.6c-0.2,0.2-0.5,0.7-0.7,1.1c-0.4,0.5-0.7,1.1-1.4,2c-0.5,0.9-1.1,1.9-1.9,3
				c-0.7,1.3-1.6,2.7-2.7,4.3c1.4-0.7,2.8-1.8,4.1-2.9c1.3-1.1,2.5-2.5,3.3-3.5c0.9-1.3,1.6-2.5,2.1-3.5
				C458.7,420.5,458.9,419.6,458.9,418.9z"/>
			<path fill="#182447" stroke="#182447" stroke-width="0.5" stroke-miterlimit="10" d="M495.2,423.7c0.2,0.2,0.2,0.2-0.2,0.2
				c-0.2,0-0.2,0-0.2,0c-0.2,0-0.2,0-0.2,0c-0.2,0-0.7,0.2-1,0.2c-0.5,0.2-1.1,0.5-1.9,1.1c-0.9,0.7-1.9,1.4-3.2,2.7
				c-1.3,1.1-2.9,2.8-4.7,5c-0.5,0.5-1,1.1-1.6,1.9s-1.3,1.6-1.9,2.3c-0.7,0.7-1.3,1.6-1.8,2.3c-0.5,0.7-0.9,1.3-1.1,1.8
				c0,0.2-0.2,0.2-0.2,0.2c-0.2,0.2-0.2,0.2-0.4,0.2c-0.2,0-0.7,0.2-0.9,0.2c-0.2,0.2-0.5,0.2-0.7,0.5c-0.2,0-0.2-0.2-0.2-0.4
				c0.2-0.2,0.2-0.4,0.2-0.7c0-0.5,0.2-1,0.2-1.8c0-0.7,0.2-1.6,0.2-2.5s0-1.8,0.2-2.7c0-0.9,0-1.8,0-2.5s0-1.6,0-2.1
				c0-0.4-0.2-0.5-0.2-0.5c-0.1,0-0.2,0-0.4,0.2c-0.2,0.2-0.5,0.5-1,0.9c-0.5,0.5-1.1,1-1.8,1.6s-1.4,1.4-2.3,2.1
				c-0.9,0.7-1.6,1.6-2.5,2.5c-0.9,0.9-1.6,1.6-2.5,2.5c-0.7,0.9-1.6,1.6-2.1,2.5c-0.2,0.2-0.2,0.2-0.2,0.2
				c-0.2,0.2-0.2,0.2-0.2,0.2c-0.4,0-0.7,0-1,0.2c-0.2,0.2-0.5,0.2-0.7,0.2c-0.2,0-0.2-0.2-0.2-0.4c0.2-0.2,0.4-0.7,0.7-1.1
				s0.4-1,0.7-1.6c0.2-0.2,0.2-0.7,0.5-1.4c0.2-0.7,0.5-1.4,0.7-2.3c0.2-0.9,0.7-1.6,0.9-2.5c0.2-0.9,0.7-1.8,0.9-2.5s0.5-1.6,0.7-2
				s0.2-0.9,0.2-1.1c0-0.4-0.2-0.5-0.5-0.5c-0.4,0-0.7,0-1,0.2c-0.3,0.2-0.7,0.2-0.9,0.2c-0.2,0-0.2,0-0.2-0.2c0-0.2,0-0.2,0.2-0.2
				c1.1-0.2,2-0.4,2.7-0.5c0.7-0.2,1.1-0.2,1.4-0.2c0.2-0.2,0.5-0.2,0.7-0.2s0.2,0,0.2,0c0.2,0,0.2,0,0.2,0.2s0,0.2-0.2,0.2
				c-0.2,0.2-0.2,0.2-0.2,0.4c-0.2,0.2-0.2,0.4-0.2,0.7c-0.2,0.2-0.2,0.5-0.4,0.7s-0.2,0.5-0.4,0.9c-0.7,1.6-1.3,3.4-1.8,5.3
				c-0.7,1.9-1.1,3.7-1.6,5.5c-0.2,0.2-0.2,0.4,0,0.4c0,0,0.2,0,0.2-0.2c1-1,2.1-2,3.4-3.2c1.3-1.1,2.5-2.5,3.7-3.5
				c1.3-1.3,2.5-2.5,3.7-3.5c1.1-1.1,2.3-2.1,3.3-3c0.2,0,0.2,0,0.2,0.2c0,0.2,0.2,0.2,0,0.2c-0.2,0-0.2,0.2-0.4,0.2
				c-0.2,0.2-0.2,0.2-0.2,0.5c0,0.4-0.2,0.9-0.2,1.6c0,0.7-0.2,1.3-0.2,2s0,1.4-0.2,2.1c0,0.7,0,1.6,0,2.1c0,1.1,0,2,0,2.8
				c0,0.7,0,1.4,0,1.8c0,0.2,0,0.2,0.2,0.2c0.2,0,0.2,0,0.2-0.2c0.4-0.5,0.9-1.1,1.4-1.8c0.5-0.7,1-1.3,1.6-1.9
				c0.5-0.7,1.1-1.3,1.6-1.9c0.5-0.7,1-1.1,1.6-1.8c0.5-0.7,1.1-1.3,1.8-2c0.7-0.7,1.3-1.4,2-2c0.7-0.7,1.3-1.3,1.9-1.9
				c0.7-0.7,1.1-1.1,1.6-1.6c0.5-0.4,0.9-0.7,1.4-1.1c0.5-0.4,1-0.5,1.6-0.5c0,0,0.2,0,0.2,0c0.2,0,0.2,0.2,0.4,0.2
				c0.2,0,0.2,0.2,0.4,0.2C495,423.7,495.2,423.7,495.2,423.7z"/>
			<path fill="#182447" stroke="#182447" stroke-width="0.5" stroke-miterlimit="10" d="M492.9,437.2c-0.4,0.5-0.9,1-1.4,1.6
				c-0.5,0.5-1.1,1-1.8,1.6c-0.7,0.5-1.4,0.7-2,1.1c-0.7,0.2-1.4,0.4-2.1,0.4c-1.1,0-1.6-0.5-1.6-1.6c0-0.7,0.2-1.4,0.5-2.1
				c0.4-0.7,0.7-1.6,1.4-2.1c0.5-0.7,1.1-1.3,1.8-1.6c0.7-0.5,1.3-0.7,1.9-0.7c0.4,0,0.5,0,0.7,0.2c0.2,0.2,0.2,0.2,0.2,0.5
				s-0.2,0.7-0.2,0.9c-0.2,0.4-0.5,0.7-0.7,1c-0.4,0.2-0.7,0.5-1.4,0.7c-0.5,0.2-1.3,0.2-2,0.2c-0.2,0.2-0.2,0.5-0.4,1
				c-0.2,0.5-0.2,0.9-0.2,1.4c0,1,0.5,1.6,1.4,1.6c0.5,0,1.1-0.2,1.6-0.4c0.7-0.2,1.1-0.7,1.6-1c0.5-0.3,1-0.7,1.6-1.3
				c0.5-0.5,0.9-0.9,1.1-1.3L492.9,437.2C492.8,437.1,492.9,437.1,492.9,437.2z M489,434.3c0-0.2-0.2-0.5-0.5-0.5
				c-0.2,0-0.5,0.2-0.7,0.2c-0.2,0.2-0.5,0.4-0.7,0.7c-0.2,0.2-0.5,0.7-0.7,0.9c-0.2,0.4-0.4,0.7-0.5,1c0,0,0.2,0,0.2,0
				c0.2,0,0.2,0,0.2,0c0.7,0,1.3-0.2,1.8-0.7C488.8,435.5,489,435,489,434.3z"/>
			<path fill="#182447" stroke="#182447" stroke-width="0.5" stroke-miterlimit="10" d="M503.8,436.4c-0.5,0.7-1.1,1.4-1.8,2
				c-0.7,0.7-1.3,1.3-2,1.9c-0.7,0.5-1.4,1-2,1.4s-1.3,0.5-1.8,0.5s-0.7-0.2-1-0.4c-0.2-0.2-0.2-0.5-0.2-0.9s0.2-0.7,0.2-1.4
				c0.2-0.5,0.5-1.1,0.9-1.8c-0.2,0.4-0.7,0.9-1.1,1.3c-0.4,0.5-0.9,0.9-1.3,1.3c-0.4,0.4-0.9,0.7-1.3,0.9s-0.7,0.4-1.1,0.4
				c-0.5,0-0.7-0.2-0.7-0.7s0.2-1.3,0.7-2c0.4-0.9,1-1.6,1.8-2.5c0.7-0.7,1.6-1.4,2.5-2c0.9-0.5,1.9-0.9,2.9-0.9
				c0.2-0.2,0.2-0.4,0.4-0.5c0.2-0.2,0.2-0.2,0.2-0.2l1-0.2h0.2c-0.2,0.2-0.2,0.2-0.4,0.5c-0.2,0.2-0.2,0.4-0.4,0.5
				c0.2,0,0.2,0,0.5,0c0.2,0,0.4,0,0.5,0.2c0.2,0,0.2,0.2,0.2,0.2c0,0.2,0,0.2-0.2,0.2c-0.2,0-0.4-0.2-0.7-0.2c-0.2,0-0.5,0-0.7,0
				c-1.1,1.9-1.9,3.5-2.5,4.7c-0.5,1.1-0.7,2-0.7,2.5c0,0.2,0,0.4,0.2,0.5c0.2,0.2,0.4,0.2,0.7,0.2c0.4,0,0.9-0.2,1.4-0.4
				c0.5-0.2,1.1-0.7,1.6-1.1c0.7-0.5,1.3-1,1.9-1.6c0.7-0.7,1.3-1.4,1.8-2c0-0.2,0.2-0.2,0.2,0C503.8,436.3,503.8,436.4,503.8,436.4
				z M498.1,433.8c-0.7,0-1.6,0.2-2.3,0.9c-0.7,0.7-1.4,1.3-2,2c-0.7,0.7-1,1.6-1.4,2.3s-0.5,1.4-0.5,1.6c0,0.2,0.2,0.2,0.2,0.2
				c0.2,0,0.4-0.2,0.7-0.2c0.2-0.2,0.7-0.5,1-0.7c0.4-0.4,0.7-0.7,1.1-1.1c0.4-0.4,0.7-0.9,1.1-1.4c0.4-0.7,0.7-1.1,1.1-1.9
				C497.6,434.9,497.9,434.3,498.1,433.8L498.1,433.8z"/>
			<path fill="#182447" stroke="#182447" stroke-width="0.5" stroke-miterlimit="10" d="M518.9,417.9c0,0.4-0.2,0.7-0.4,1.6
				c-0.2,0.7-0.7,1.4-1.1,2.3s-1.1,1.8-1.8,2.8c-0.7,1-1.6,1.9-2.5,2.9c-0.9,1-1.9,1.9-2.9,2.8c-1.1,0.9-2.3,1.6-3.4,2.3
				c-0.2,0.4-0.5,0.9-0.9,1.6s-0.7,1.4-1.1,2c-0.4,0.7-0.7,1.4-1,2.1c-0.2,0.7-0.4,1.3-0.4,1.8c0,0.7,0.4,1.1,1,1.1
				c0.6,0,1.3-0.2,1.9-0.5c0.7-0.4,1.3-0.7,1.9-1.3c0.7-0.5,1.1-1,1.6-1.6c0.5-0.6,1-1,1.3-1.4c0.2-0.2,0.2-0.2,0.2-0.2
				c0,0.2,0,0.2-0.2,0.2c-0.4,0.5-0.9,1.1-1.6,1.6c-0.7,0.7-1.3,1.1-1.9,1.6c-0.7,0.5-1.4,0.9-2,1.3c-0.7,0.4-1.4,0.5-2.1,0.5
				c-0.7,0-1-0.2-1.4-0.5c-0.2-0.2-0.4-0.7-0.4-1.1c0-0.4,0.2-1,0.5-1.9c0.4-0.7,0.7-1.6,1.3-2.5c0.6-0.9,1-1.8,1.6-2.5
				c0.5-0.7,0.9-1.4,1.1-1.8c0.4-0.7,0.9-1.4,1.3-2.1s0.9-1.6,1.3-2.1c0.4-0.7,0.9-1.4,1.3-2c0.4-0.7,0.7-1.3,1.1-1.8
				c0.4-0.7,0.9-1.3,1.3-1.8c0.4-0.5,1-1.1,1.6-1.6c0.9-0.7,1.8-1.4,2.5-1.8c0.7-0.4,1.3-0.7,1.6-0.7c0.2,0,0.4,0,0.5,0.2
				C518.9,417.5,518.9,417.6,518.9,417.9z M517.4,418.9c0-0.4-0.2-0.7-0.5-0.7c-0.2,0-0.2,0-0.4,0.2c-0.2,0.2-0.4,0.2-0.5,0.5
				c-0.2,0.2-0.5,0.5-0.9,1c-0.4,0.4-0.7,0.9-1.3,1.6c-0.2,0.2-0.5,0.7-0.7,1.1c-0.4,0.5-0.7,1.1-1.4,2c-0.5,0.9-1.1,1.9-1.9,3
				c-0.7,1.3-1.6,2.7-2.7,4.3c1.4-0.7,2.8-1.8,4.1-2.9c1.3-1.1,2.5-2.5,3.3-3.5c0.9-1.3,1.6-2.5,2.1-3.5
				C517,420.5,517.4,419.6,517.4,418.9z"/>
			<path fill="#182447" stroke="#182447" stroke-width="0.5" stroke-miterlimit="10" d="M517.7,428.3c-0.2,0-0.4,0.2-0.7,0.2
				c-0.2,0.2-0.4,0.2-0.5,0.5c-0.5,0.7-1.1,1.6-1.6,2.5c-0.5,0.9-1,1.6-1.6,2.5h4.4c0.2,0,0.2,0.2,0.2,0.2s0,0.2-0.2,0.2
				c-0.2,0-0.5,0-0.9,0s-0.7,0-1.3,0s-0.9,0-1.4,0.2c-0.5,0-0.9,0-1.3,0.2c-0.7,1.1-1.1,2.1-1.6,3s-0.5,1.6-0.5,2.1
				c0,0.9,0.4,1.3,1.1,1.3c0.4,0,0.7-0.2,1.3-0.2c0.5-0.2,1-0.5,1.6-0.7c0.2-0.2,0.2-0.2,0.2,0c0.2,0.2,0,0.2-0.2,0.2
				c-0.7,0.5-1.6,0.9-2.3,1.1c-0.7,0.2-1.4,0.4-2.1,0.4c-0.4,0-0.7-0.2-1-0.4s-0.4-0.7-0.4-1.1s0.2-1.1,0.7-2.1c0.4-0.9,1-2,1.9-3.4
				c-0.2,0-0.7,0-1,0.2c-0.4,0-0.7,0-0.7,0c-0.2,0-0.2,0-0.2-0.2c0.2-0.2,0.2-0.4,0.5-0.5h1.8c0.2-0.4,0.5-0.7,0.7-1.1
				c0.2-0.5,0.5-0.9,0.7-1.4s0.5-0.9,0.7-1.3s0.5-0.7,0.7-1.1c0.2-0.2,0.7-0.2,1.1-0.5c0.5-0.2,0.9-0.4,1.3-0.5
				C517.7,428.2,517.7,428.2,517.7,428.3C517.9,428.2,517.9,428.2,517.7,428.3z"/>
			<path fill="#182447" stroke="#182447" stroke-width="0.5" stroke-miterlimit="10" d="M540.2,417.6c0,0.4,0,0.7,0,0.9
				s-0.2,0.4-0.2,0.4c0,0.2-0.2,0.2-0.2,0v-0.2c0-0.2,0-0.4-0.2-0.7s-0.2-0.5-0.5-0.9c-0.2-0.2-0.7-0.5-1-0.7
				c-0.5-0.2-1-0.2-1.8-0.2c-0.7,0-1.3,0.2-1.9,0.2c-0.7,0.2-1.4,0.5-2.1,1c-0.7,0.5-1.6,1.3-2.5,2.1c-0.9,0.9-1.8,2.1-2.9,3.5
				c-1.1,1.4-2.1,3.2-3.4,5.3c-1.3,2-2.5,4.6-3.9,7.4c0.2-0.2,0.4-0.4,0.7-0.7c0.4-0.2,0.7-0.7,1.1-0.9c0.4-0.2,0.9-0.5,1.3-0.7
				s0.7-0.4,1-0.4c0.2,0,0.4,0.2,0.4,0.2c0,0.2-0.2,0.4-0.4,0.7c-0.2,0.2-0.5,0.7-0.7,1.1c-0.2,0.5-0.7,1-0.9,1.6s-0.5,1.1-0.7,1.6
				c-0.2,0.5-0.4,1-0.4,1.4c0,0.4,0.2,0.7,0.2,0.9c0.2,0.2,0.5,0.2,0.7,0.2c0.5,0,1.4-0.4,2.3-1.1c1-0.7,2.1-1.9,3.4-3.7l0.2-0.2
				c0,0,0.2,0,0.2,0.2c-0.5,0.7-1,1.3-1.6,1.9c-0.7,0.7-1.3,1.3-1.9,1.8c-0.7,0.5-1.3,1-1.9,1.3c-0.7,0.4-1.3,0.5-1.8,0.5
				c-0.4,0-0.7-0.2-1-0.4c-0.2-0.2-0.4-0.5-0.4-1c0-0.4,0.2-0.9,0.4-1.6s0.5-1.1,0.9-1.8c0.4-0.7,0.7-1.1,0.9-1.6
				c0.2-0.5,0.4-0.9,0.4-1.1c0-0.2,0-0.2-0.2-0.2c-0.2,0-0.7,0.2-1.1,0.7c-0.5,0.4-1.3,1.1-2.1,2.3c-0.4,0.7-0.7,1.3-1,1.9
				c-0.3,0.6-0.7,1.3-0.9,1.8c-0.2,0.4-0.4,0.7-0.5,0.7s-0.2,0-0.5-0.2c-0.2,0-0.2-0.2-0.2-0.4c0-0.2,0-0.2,0.2-0.4
				c1-1.8,2-3.5,2.9-5.2c1-1.6,1.9-3.2,2.9-4.8c1.1-1.8,2.3-3.7,3.5-5.5c1.3-1.9,2.5-3.5,3.8-5.1c1.3-1.6,2.7-2.8,3.9-3.8
				c1.4-1,2.7-1.4,4.1-1.4c0.4,0,0.7,0,1,0.2c0.3,0.2,0.7,0.2,1,0.4c0.4,0.2,0.7,0.5,0.7,0.7C540.2,416.6,540.2,417.1,540.2,417.6z"
				/>
		</g>
	</g>
	<g enable-background="new    ">
		<path fill="#5D5D5D" d="M281.5,424.9c1-0.2,2.3-0.3,4-0.3c2,0,3.5,0.5,4.5,1.3c0.9,0.8,1.4,1.9,1.4,3.3c0,1.4-0.4,2.6-1.2,3.4
			c-1.1,1.2-2.9,1.8-4.9,1.8c-0.6,0-1.2,0-1.7-0.1v6.4h-2.1V424.9z M283.5,432.7c0.5,0.1,1,0.2,1.7,0.2c2.5,0,4-1.2,4-3.4
			c0-2.1-1.5-3.2-3.8-3.2c-0.9,0-1.6,0.1-1.9,0.2V432.7z"/>
		<path fill="#5D5D5D" d="M303.8,434.9c0,4.2-3,6.1-5.7,6.1c-3.1,0-5.5-2.3-5.5-5.9c0-3.8,2.5-6.1,5.7-6.1
			C301.6,429,303.8,431.4,303.8,434.9z M294.7,435c0,2.5,1.4,4.4,3.5,4.4c2,0,3.5-1.9,3.5-4.5c0-1.9-1-4.4-3.4-4.4
			C295.8,430.6,294.7,432.9,294.7,435z"/>
		<path fill="#5D5D5D" d="M307.1,429.3l1.5,5.8c0.3,1.3,0.6,2.5,0.8,3.7h0.1c0.3-1.2,0.6-2.4,1-3.6l1.9-5.9h1.8l1.8,5.7
			c0.4,1.4,0.8,2.6,1,3.7h0.1c0.2-1.2,0.5-2.4,0.9-3.7l1.6-5.8h2.1l-3.7,11.5H316l-1.8-5.5c-0.4-1.3-0.7-2.4-1-3.8h0
			c-0.3,1.4-0.6,2.6-1,3.8l-1.8,5.5h-1.9l-3.5-11.5H307.1z"/>
		<path fill="#5D5D5D" d="M324.7,435.4c0,2.8,1.8,4,3.9,4c1.5,0,2.4-0.3,3.2-0.6l0.4,1.5c-0.7,0.3-2,0.7-3.8,0.7
			c-3.5,0-5.6-2.3-5.6-5.8s2-6.2,5.4-6.2c3.8,0,4.7,3.3,4.7,5.4c0,0.4,0,0.7-0.1,1H324.7z M330.8,433.9c0-1.3-0.5-3.4-2.9-3.4
			c-2.1,0-3,1.9-3.2,3.4H330.8z"/>
		<path fill="#5D5D5D" d="M335.4,432.8c0-1.4,0-2.5-0.1-3.6h1.8l0.1,2.3h0.1c0.5-1.5,1.8-2.5,3.2-2.5c0.2,0,0.4,0,0.6,0v2
			c-0.2,0-0.4,0-0.7,0c-1.5,0-2.5,1.1-2.8,2.7c0,0.3-0.1,0.6-0.1,1v6.1h-2.1V432.8z"/>
		<path fill="#5D5D5D" d="M344,435.4c0,2.8,1.8,4,3.9,4c1.5,0,2.4-0.3,3.2-0.6l0.4,1.5c-0.7,0.3-2,0.7-3.8,0.7
			c-3.5,0-5.6-2.3-5.6-5.8s2-6.2,5.4-6.2c3.8,0,4.7,3.3,4.7,5.4c0,0.4,0,0.7-0.1,1H344z M350.2,433.9c0-1.3-0.5-3.4-2.9-3.4
			c-2.1,0-3,1.9-3.2,3.4H350.2z"/>
		<path fill="#5D5D5D" d="M364.7,423.9v13.9c0,1,0,2.2,0.1,3h-1.8l-0.1-2h-0.1c-0.6,1.3-2,2.3-3.9,2.3c-2.8,0-4.9-2.3-4.9-5.8
			c0-3.8,2.4-6.1,5.1-6.1c1.8,0,2.9,0.8,3.5,1.7h0v-6.9H364.7z M362.6,433.9c0-0.3,0-0.6-0.1-0.9c-0.3-1.3-1.4-2.4-3-2.4
			c-2.2,0-3.4,1.9-3.4,4.4c0,2.3,1.2,4.2,3.4,4.2c1.4,0,2.7-0.9,3.1-2.5c0.1-0.3,0.1-0.6,0.1-0.9V433.9z"/>
		<path fill="#5D5D5D" d="M373.2,423.9h2.1v7.2h0c0.7-1.3,2.1-2.1,3.9-2.1c2.9,0,4.9,2.4,4.9,5.8c0,4.1-2.6,6.1-5.2,6.1
			c-1.7,0-3-0.6-3.9-2.1h0l-0.1,1.9h-1.8c0-0.8,0.1-1.9,0.1-3V423.9z M375.2,436.1c0,0.3,0,0.5,0.1,0.8c0.4,1.4,1.6,2.4,3.1,2.4
			c2.2,0,3.5-1.8,3.5-4.4c0-2.3-1.2-4.3-3.4-4.3c-1.4,0-2.7,1-3.2,2.6c-0.1,0.3-0.1,0.5-0.1,0.9V436.1z"/>
		<path fill="#5D5D5D" d="M387.2,429.3l2.5,6.8c0.3,0.8,0.6,1.7,0.8,2.3h0c0.2-0.7,0.5-1.6,0.7-2.4l2.3-6.7h2.2l-3.1,8.2
			c-1.5,3.9-2.5,5.9-3.9,7.2c-1,0.9-2,1.2-2.6,1.3l-0.5-1.7c0.5-0.2,1.2-0.5,1.8-1c0.6-0.5,1.3-1.3,1.8-2.3c0.1-0.2,0.2-0.4,0.2-0.5
			c0-0.1,0-0.3-0.2-0.5l-4.2-10.6H387.2z"/>
	</g>
</g>
</svg>
